<?xml version="1.0" encoding="UTF-8" standalone="no"?>
<svg
   xmlns:dc="http://purl.org/dc/elements/1.1/"
   xmlns:cc="http://creativecommons.org/ns#"
   xmlns:rdf="http://www.w3.org/1999/02/22-rdf-syntax-ns#"
   xmlns:svg="http://www.w3.org/2000/svg"
   xmlns="http://www.w3.org/2000/svg"
   xmlns:sodipodi="http://sodipodi.sourceforge.net/DTD/sodipodi-0.dtd"
   xmlns:inkscape="http://www.inkscape.org/namespaces/inkscape"
   inkscape:export-ydpi="96"
   inkscape:export-xdpi="96"
   inkscape:export-filename="C:\xampp\htdocs\portifolio_salomao\imagens\nodejs2.png"
   sodipodi:docname="nodejs2.svg"
   inkscape:version="1.0 (4035a4fb49, 2020-05-01)"
   id="svg8"
   version="1.1"
   viewBox="0 0 26.458333 26.458334"
   height="100"
   width="100">
  <defs
     id="defs2" />
  <sodipodi:namedview
     inkscape:window-maximized="0"
     inkscape:window-y="0"
     inkscape:window-x="26"
     inkscape:window-height="1040"
     inkscape:window-width="1518"
     units="px"
     inkscape:guide-bbox="true"
     showguides="true"
     showgrid="false"
     inkscape:document-rotation="0"
     inkscape:current-layer="layer1"
     inkscape:document-units="mm"
     inkscape:cy="52.028376"
     inkscape:cx="39.005848"
     inkscape:zoom="8.359222"
     inkscape:pageshadow="2"
     inkscape:pageopacity="0.0"
     borderopacity="1.0"
     bordercolor="#666666"
     pagecolor="#ffffff"
     id="base" />
  <metadata
     id="metadata5">
    <rdf:RDF>
      <cc:Work
         rdf:about="">
        <dc:format>image/svg+xml</dc:format>
        <dc:type
           rdf:resource="http://purl.org/dc/dcmitype/StillImage" />
        <dc:title></dc:title>
      </cc:Work>
    </rdf:RDF>
  </metadata>
  <g
     id="layer1"
     inkscape:groupmode="layer"
     inkscape:label="Layer 1">
    <g
       transform="matrix(0.05143421,0,0,0.05120538,0.06954202,0.06433827)"
       id="g83">
</g>
    <g
       transform="matrix(0.05143421,0,0,0.05120538,0.06954202,0.06433827)"
       id="g85">
</g>
    <g
       transform="matrix(0.05143421,0,0,0.05120538,0.06954202,0.06433827)"
       id="g87">
</g>
    <g
       transform="matrix(0.05143421,0,0,0.05120538,0.06954202,0.06433827)"
       id="g89">
</g>
    <g
       transform="matrix(0.05143421,0,0,0.05120538,0.06954202,0.06433827)"
       id="g91">
</g>
    <g
       transform="matrix(0.05143421,0,0,0.05120538,0.06954202,0.06433827)"
       id="g93">
</g>
    <g
       transform="matrix(0.05143421,0,0,0.05120538,0.06954202,0.06433827)"
       id="g95">
</g>
    <g
       transform="matrix(0.05143421,0,0,0.05120538,0.06954202,0.06433827)"
       id="g97">
</g>
    <g
       transform="matrix(0.05143421,0,0,0.05120538,0.06954202,0.06433827)"
       id="g99">
</g>
    <g
       transform="matrix(0.05143421,0,0,0.05120538,0.06954202,0.06433827)"
       id="g101">
</g>
    <g
       transform="matrix(0.05143421,0,0,0.05120538,0.06954202,0.06433827)"
       id="g103">
</g>
    <g
       transform="matrix(0.05143421,0,0,0.05120538,0.06954202,0.06433827)"
       id="g105">
</g>
    <g
       transform="matrix(0.05143421,0,0,0.05120538,0.06954202,0.06433827)"
       id="g107">
</g>
    <g
       transform="matrix(0.05143421,0,0,0.05120538,0.06954202,0.06433827)"
       id="g109">
</g>
    <g
       transform="matrix(0.05143421,0,0,0.05120538,0.06954202,0.06433827)"
       id="g111">
</g>
    <path
       id="path1100"
       d="m 26.332312,13.224546 c 0,7.242203 -5.856785,13.11316 -13.081508,13.11316 -6.6656926,0 -12.1668755,-4.997446 -12.97792894,-11.45875 -0.0683202,-0.541687 -0.10357897,-1.094027 -0.10357897,-1.65441 0,-1.026566 0.11747807,-2.025829 0.3401192,-2.984473 C 1.8570661,4.4360654 7.0501692,0.11138633 13.250804,0.11138633 c 6.185151,0 11.368086,4.30326777 12.730709,10.08591467 0.178848,0.756261 0.291523,1.537723 0.332658,2.337882 0.01226,0.228507 0.01814,0.458141 0.01814,0.689363 z"
       style="fill:#000000;stroke-width:0.0511614;fill-opacity:1" />
    <polygon
       transform="matrix(0.05109964,0,0,0.05122328,0.16929609,0.11138633)"
       id="polygon1102"
       points="185.553,309.838 243.195,276.559 243.195,210 185.553,176.721 127.912,210 127.912,276.559 "
       style="fill:#3b8739" />
    <path
       id="path1104"
       d="m 24.196551,13.76029 1.919507,1.111136 -1.919507,1.111135 -2.94523,-1.704711 v -3.409421 l 2.94523,-1.704711 1.784962,1.033532 c 0.178848,0.756261 0.291523,1.537723 0.332658,2.337882 l -1.091386,0.631583 v -1.187663 l -1.026234,-0.593575 -1.026234,0.593575 v 1.187663 z"
       style="fill:#ffffff;stroke-width:0.0511614;fill-opacity:1" />
    <polygon
       transform="matrix(0.05109964,0,0,0.05122328,0.16929609,0.11138633)"
       id="polygon1106"
       points="470.203,256.201 481.392,249.74 481.392,236.82 470.203,230.36 459.013,236.82 459.013,249.74 "
       style="fill:#66a060" />
    <path
       id="path1108"
       d="m 5.3143144,10.86848 v 4.495919 L 3.3499421,14.24097 V 11.936281 L 2.3691356,11.368368 1.388278,11.936229 v 2.304689 l -1.11540294,0.638038 c -0.0683202,-0.541687 -0.10357897,-1.094027 -0.10357897,-1.65441 0,-1.026566 0.11747807,-2.025829 0.3401192,-2.984473 L 2.3691356,9.163718 Z"
       style="fill:#ffffff;stroke-width:0.0511614;fill-opacity:1" />
    <rect
       id="rect1110"
       height="3.4030232"
       width="5.9013805"
       style="fill:#6da75d;stroke-width:0.0511604"
       transform="matrix(0.49910502,0.8665415,-0.86549503,0.50091751,0,0)"
       y="-3.7892716"
       x="12.765175" />
    <polygon
       transform="matrix(0.05109964,0,0,0.05122328,0.16929609,0.11138633)"
       id="polygon1112"
       points="127.912,210 127.912,276.559 147.704,244.283 "
       style="fill:#55a344" />
    <polygon
       transform="matrix(0.05109964,0,0,0.05122328,0.16929609,0.11138633)"
       id="polygon1114"
       points="185.553,176.721 223.979,243.277 243.195,210 "
       style="fill:#639d57" />
    <path
       id="path1116"
       d="M 17.877927,5.2121493 V 9.7353698 L 16.890682,9.163718 13.944941,10.868429 v 3.409421 l 2.945741,1.704711 2.94523,-1.704711 V 6.26279 Z m -0.0054,7.9289027 -0.981931,0.568425 -0.98193,-0.568425 v -1.136286 l 0.98193,-0.568425 0.981931,0.568425 z"
       style="fill:#ffffff;stroke-width:0.0511614;fill-opacity:1" />
    <g
       transform="matrix(0.05109964,0,0,0.05122328,0.16929609,0.11138633)"
       id="g1122">
	<path
   id="path1118"
   d="m 282.149,358.717 c 0,0 -1.132,-9.729 -11.539,-9.729 -10.408,0 -17.534,1.357 -17.534,7.127 0,5.77 20.25,5.77 27.943,8.032 7.693,2.262 14.48,8.145 11.086,18.553 -3.394,10.408 -13.802,11.539 -29.866,11.539 -16.064,0 -19.685,-13.35 -19.685,-18.553 h 9.05 c 0,0 -1.132,8.145 9.502,9.502 10.634,1.357 20.802,2.121 22.173,-6.108 1.81,-10.861 -34.391,-5.43 -37.559,-16.064 -2.676,-8.985 -1.132,-20.815 16.969,-22.626 18.101,-1.811 28.056,6.181 28.056,18.101 z"
   style="fill:#66a060" />

	<path
   id="path1120"
   d="m 194.723,401.131 20.008,11.551 c 10.053,5.804 22.619,-1.451 22.619,-13.059 v -20.242 -37.253 h -8.155 v 55.227 c 0,6.339 -6.862,10.302 -12.353,7.131 l -13.965,-8.062 v -58.94 l 51.043,-29.467 51.043,29.467 v 58.94 l -51.043,29.467 -14.704,-8.489 -9.602,3.872 24.305,14.033 59.198,-34.179 V 332.777 L 253.92,298.6 194.722,332.779 v 68.352 z"
   style="fill:#66a060" />

</g>
    <g
       transform="matrix(0.05109964,0,0,0.05122328,0.16929609,0.11138633)"
       id="g1124">
</g>
    <g
       transform="matrix(0.05109964,0,0,0.05122328,0.16929609,0.11138633)"
       id="g1126">
</g>
    <g
       transform="matrix(0.05109964,0,0,0.05122328,0.16929609,0.11138633)"
       id="g1128">
</g>
    <g
       transform="matrix(0.05109964,0,0,0.05122328,0.16929609,0.11138633)"
       id="g1130">
</g>
    <g
       transform="matrix(0.05109964,0,0,0.05122328,0.16929609,0.11138633)"
       id="g1132">
</g>
    <g
       transform="matrix(0.05109964,0,0,0.05122328,0.16929609,0.11138633)"
       id="g1134">
</g>
    <g
       transform="matrix(0.05109964,0,0,0.05122328,0.16929609,0.11138633)"
       id="g1136">
</g>
    <g
       transform="matrix(0.05109964,0,0,0.05122328,0.16929609,0.11138633)"
       id="g1138">
</g>
    <g
       transform="matrix(0.05109964,0,0,0.05122328,0.16929609,0.11138633)"
       id="g1140">
</g>
    <g
       transform="matrix(0.05109964,0,0,0.05122328,0.16929609,0.11138633)"
       id="g1142">
</g>
    <g
       transform="matrix(0.05109964,0,0,0.05122328,0.16929609,0.11138633)"
       id="g1144">
</g>
    <g
       transform="matrix(0.05109964,0,0,0.05122328,0.16929609,0.11138633)"
       id="g1146">
</g>
    <g
       transform="matrix(0.05109964,0,0,0.05122328,0.16929609,0.11138633)"
       id="g1148">
</g>
    <g
       transform="matrix(0.05109964,0,0,0.05122328,0.16929609,0.11138633)"
       id="g1150">
</g>
    <g
       transform="matrix(0.05109964,0,0,0.05122328,0.16929609,0.11138633)"
       id="g1152">
</g>
  </g>
</svg>
