<?xml version="1.0" encoding="UTF-8" standalone="no"?>
<svg
   xmlns:dc="http://purl.org/dc/elements/1.1/"
   xmlns:cc="http://creativecommons.org/ns#"
   xmlns:rdf="http://www.w3.org/1999/02/22-rdf-syntax-ns#"
   xmlns:svg="http://www.w3.org/2000/svg"
   xmlns="http://www.w3.org/2000/svg"
   xmlns:sodipodi="http://sodipodi.sourceforge.net/DTD/sodipodi-0.dtd"
   xmlns:inkscape="http://www.inkscape.org/namespaces/inkscape"
   sodipodi:docname="react2.svg"
   inkscape:version="1.0 (4035a4fb49, 2020-05-01)"
   id="svg8"
   version="1.1"
   viewBox="0 0 26.458333 26.458334"
   height="100"
   width="100">
  <defs
     id="defs2" />
  <sodipodi:namedview
     inkscape:window-maximized="0"
     inkscape:window-y="0"
     inkscape:window-x="26"
     inkscape:window-height="1040"
     inkscape:window-width="1518"
     units="px"
     inkscape:guide-bbox="true"
     showguides="true"
     showgrid="false"
     inkscape:document-rotation="0"
     inkscape:current-layer="layer1"
     inkscape:document-units="mm"
     inkscape:cy="54.269734"
     inkscape:cx="50.909285"
     inkscape:zoom="7.4833837"
     inkscape:pageshadow="2"
     inkscape:pageopacity="0.0"
     borderopacity="1.0"
     bordercolor="#666666"
     pagecolor="#ffffff"
     id="base" />
  <metadata
     id="metadata5">
    <rdf:RDF>
      <cc:Work
         rdf:about="">
        <dc:format>image/svg+xml</dc:format>
        <dc:type
           rdf:resource="http://purl.org/dc/dcmitype/StillImage" />
        <dc:title></dc:title>
      </cc:Work>
    </rdf:RDF>
  </metadata>
  <g
     id="layer1"
     inkscape:groupmode="layer"
     inkscape:label="Layer 1">
    <path
       id="path71"
       d="m 26.403858,13.172916 c 0,4.318866 -2.098156,8.149797 -5.334602,10.53822 -1.35488,0.999478 -2.909119,1.74636 -4.592407,2.170136 -1.036656,0.261659 -2.121764,0.400221 -3.240149,0.400221 -1.118386,0 -2.204008,-0.138562 -3.2407155,-0.400221 C 8.3127486,25.457496 6.7584582,24.710614 5.4035782,23.710573 2.167132,21.322149 0.06954202,17.49127 0.06954202,13.172916 0.06954202,5.9332429 5.964674,0.06433827 13.2367,0.06433827 c 7.272026,0 13.167158,5.86890463 13.167158,13.10857773 z"
       style="fill:#060c0d;stroke-width:0.0513197;fill-opacity:1" />
    <g
       transform="matrix(0.05143421,0,0,0.05120538,0.06954202,0.06433827)"
       id="g81">
	<path
   id="path73"
   d="m 408.545,400.144 c -1.202,-8.056 -2.79,-16.353 -4.754,-24.837 -1.735,-7.45 -3.751,-15.047 -6.039,-22.758 -6.019,-20.25 -13.949,-41.294 -23.562,-62.568 -4.211,-9.3 -8.746,-18.641 -13.584,-27.972 -4.263,-8.223 -8.756,-16.457 -13.49,-24.639 -4.723,-8.192 -9.592,-16.196 -14.597,-24.001 -5.653,-8.85 -11.473,-17.439 -17.429,-25.736 -13.605,-18.965 -27.867,-36.362 -42.402,-51.702 -5.527,-5.841 -11.097,-11.379 -16.687,-16.593 -6.363,-5.956 -12.758,-11.483 -19.143,-16.551 C 195.177,69.695 157.864,59.758 131.773,74.815 105.682,89.882 95.63,127.164 103.446,179.817 c 1.191,8.056 2.79,16.353 4.765,24.837 1.714,7.45 3.73,15.047 6.029,22.758 6.019,20.25 13.949,41.305 23.573,62.568 4.201,9.3 8.735,18.63 13.573,27.961 4.263,8.234 8.767,16.457 13.49,24.649 4.723,8.192 9.592,16.196 14.597,24.001 5.663,8.861 11.483,17.45 17.429,25.746 13.605,18.965 27.867,36.352 42.402,51.691 5.528,5.841 11.107,11.389 16.697,16.603 6.363,5.956 12.758,11.473 19.132,16.541 15.329,12.173 30.062,21.211 43.865,27.011 32.726,-8.276 62.945,-22.862 89.286,-42.381 3.677,-16.947 3.813,-37.709 0.261,-61.658 z M 385.076,458 c -3.041,13.145 -8.631,22.152 -16.624,26.76 -7.983,4.618 -18.578,4.953 -31.483,1.024 -13.981,-4.274 -30.302,-13.615 -47.208,-27.042 -5.684,-4.514 -11.379,-9.425 -17.074,-14.702 -5.58,-5.183 -11.16,-10.721 -16.697,-16.583 -9.509,-10.062 -18.913,-21.076 -28.087,-32.893 -6.123,-7.889 -12.152,-16.133 -18.035,-24.691 -8.537,-12.403 -16.781,-25.464 -24.618,-39.048 -7.847,-13.584 -15.036,-27.251 -21.504,-40.845 -4.472,-9.373 -8.6,-18.714 -12.361,-27.961 -5.653,-13.855 -10.491,-27.512 -14.451,-40.772 -2.299,-7.732 -4.315,-15.318 -5.998,-22.747 -1.735,-7.565 -3.145,-14.963 -4.211,-22.141 -3.176,-21.347 -3.103,-40.155 0.188,-54.397 3.041,-13.145 8.641,-22.152 16.624,-26.76 4.315,-2.487 9.383,-3.741 15.161,-3.741 4.932,0 10.386,0.909 16.321,2.727 13.981,4.263 30.302,13.615 47.208,27.032 5.684,4.514 11.389,9.425 17.074,14.723 5.59,5.172 11.16,10.71 16.687,16.562 9.519,10.062 18.923,21.076 28.108,32.904 6.123,7.889 12.152,16.133 18.035,24.691 8.526,12.403 16.771,25.464 24.607,39.037 7.847,13.584 15.036,27.251 21.504,40.845 4.472,9.383 8.6,18.725 12.361,27.972 5.653,13.855 10.491,27.502 14.451,40.761 2.299,7.732 4.315,15.318 6.008,22.747 1.724,7.565 3.135,14.963 4.201,22.141 3.178,21.347 3.105,40.155 -0.187,54.397 z"
   style="fill:#f2f2f2" />

	<path
   id="path75"
   d="m 427.677,212.961 c -7.576,-2.988 -15.559,-5.757 -23.897,-8.307 -7.314,-2.226 -14.9,-4.284 -22.727,-6.154 -20.543,-4.911 -42.736,-8.568 -65.964,-10.867 -10.146,-1.014 -20.501,-1.755 -30.992,-2.226 -9.258,-0.428 -18.641,-0.648 -28.097,-0.648 -9.456,0 -18.84,0.219 -28.108,0.648 -10.501,0.47 -20.856,1.223 -31.002,2.226 -23.228,2.299 -45.411,5.956 -65.954,10.867 -7.826,1.87 -15.412,3.929 -22.727,6.154 -8.338,2.539 -16.321,5.319 -23.897,8.307 C 34.816,232.5 7.544,259.856 7.544,289.98 c 0,30.124 27.272,57.48 76.769,77.03 7.576,2.988 15.548,5.757 23.886,8.307 7.314,2.226 14.9,4.284 22.727,6.144 20.543,4.921 42.736,8.568 65.975,10.877 10.146,1.003 20.501,1.745 31.002,2.226 9.258,0.428 18.641,0.637 28.097,0.637 9.456,0 18.829,-0.209 28.087,-0.637 10.501,-0.481 20.846,-1.223 31.002,-2.226 23.228,-2.299 45.432,-5.956 65.975,-10.877 7.826,-1.87 15.412,-3.918 22.727,-6.154 8.328,-2.539 16.311,-5.308 23.886,-8.297 49.507,-19.55 76.769,-46.905 76.769,-77.03 -0.001,-30.124 -27.262,-57.48 -76.769,-77.019 z m 38.368,104.792 c -10.679,9.979 -26.937,19.435 -47.01,27.366 -6.76,2.664 -13.866,5.151 -21.285,7.429 -7.283,2.247 -14.858,4.305 -22.695,6.165 -13.469,3.208 -27.711,5.841 -42.538,7.879 -9.885,1.369 -20.031,2.466 -30.386,3.271 -15.015,1.202 -30.448,1.808 -46.132,1.808 -15.684,0 -31.117,-0.606 -46.132,-1.797 -10.355,-0.815 -20.511,-1.912 -30.396,-3.281 -14.827,-2.038 -29.069,-4.671 -42.538,-7.879 -7.837,-1.86 -15.412,-3.918 -22.695,-6.165 -7.419,-2.278 -14.524,-4.765 -21.285,-7.429 -20.072,-7.931 -36.331,-17.387 -47.01,-27.366 -9.864,-9.206 -14.869,-18.547 -14.869,-27.773 0,-9.226 5.005,-18.568 14.869,-27.773 10.679,-9.979 26.937,-19.435 47.01,-27.366 6.76,-2.664 13.866,-5.151 21.285,-7.429 7.283,-2.247 14.858,-4.305 22.695,-6.165 13.469,-3.208 27.711,-5.841 42.538,-7.879 9.885,-1.369 20.041,-2.466 30.396,-3.281 15.015,-1.191 30.448,-1.797 46.132,-1.797 15.684,0 31.117,0.606 46.132,1.808 10.355,0.805 20.501,1.902 30.386,3.271 14.827,2.038 29.069,4.671 42.538,7.879 7.837,1.86 15.412,3.918 22.695,6.165 7.419,2.278 14.524,4.765 21.285,7.429 20.072,7.931 36.331,17.387 47.01,27.366 9.864,9.206 14.869,18.547 14.869,27.773 0,9.225 -5.005,18.566 -14.869,27.771 z"
   style="fill:#f2f2f2" />

	<path
   id="path77"
   d="m 380.217,74.815 c -26.091,-15.057 -63.404,-5.12 -105.085,27.972 -6.374,5.068 -12.769,10.595 -19.132,16.551 -5.59,5.214 -11.17,10.762 -16.697,16.603 -14.535,15.339 -28.797,32.726 -42.412,51.691 -5.945,8.296 -11.766,16.886 -17.418,25.736 -5.005,7.805 -9.874,15.809 -14.597,24.001 -4.723,8.192 -9.226,16.415 -13.49,24.649 -4.838,9.331 -9.373,18.672 -13.573,27.961 -9.624,21.274 -17.554,42.318 -23.573,62.568 -2.299,7.722 -4.315,15.318 -6.04,22.768 -1.964,8.485 -3.563,16.771 -4.754,24.827 -3.553,23.939 -3.417,44.701 0.261,61.649 26.342,19.529 56.56,34.116 89.287,42.392 13.803,-5.799 28.536,-14.838 43.865,-27.011 6.384,-5.068 12.779,-10.595 19.143,-16.541 5.59,-5.214 11.16,-10.752 16.687,-16.593 14.524,-15.339 28.797,-32.737 42.402,-51.702 5.945,-8.297 11.766,-16.886 17.429,-25.746 5.005,-7.805 9.874,-15.809 14.597,-24.001 4.733,-8.182 9.226,-16.405 13.49,-24.639 4.838,-9.331 9.373,-18.672 13.584,-27.972 9.613,-21.264 17.544,-42.318 23.562,-62.568 2.288,-7.711 4.305,-15.308 6.029,-22.758 1.975,-8.485 3.563,-16.781 4.765,-24.837 7.813,-52.651 -2.238,-89.933 -28.33,-105 z m -5.161,146.432 c -3.96,13.26 -8.798,26.906 -14.451,40.761 -3.762,9.247 -7.889,18.589 -12.361,27.972 -6.468,13.594 -13.657,27.261 -21.504,40.845 -7.837,13.573 -16.081,26.634 -24.607,39.037 -5.893,8.568 -11.922,16.812 -18.045,24.701 -9.174,11.818 -18.578,22.831 -28.097,32.893 -5.527,5.851 -11.097,11.389 -16.687,16.572 -5.684,5.287 -11.389,10.198 -17.074,14.712 -16.906,13.427 -33.228,22.768 -47.208,27.042 -12.904,3.929 -23.5,3.594 -31.483,-1.024 -7.983,-4.608 -13.584,-13.615 -16.624,-26.76 -3.291,-14.242 -3.365,-33.05 -0.188,-54.397 1.066,-7.178 2.476,-14.576 4.2,-22.141 1.693,-7.429 3.709,-15.015 6.008,-22.747 3.96,-13.26 8.798,-26.917 14.451,-40.772 3.762,-9.247 7.889,-18.589 12.361,-27.961 6.468,-13.594 13.657,-27.261 21.504,-40.845 7.837,-13.584 16.081,-26.645 24.618,-39.048 5.883,-8.558 11.901,-16.802 18.024,-24.68 9.185,-11.828 18.589,-22.841 28.097,-32.904 5.538,-5.862 11.118,-11.4 16.697,-16.572 5.695,-5.287 11.389,-10.198 17.074,-14.712 16.906,-13.416 33.228,-22.768 47.208,-27.032 5.935,-1.818 11.389,-2.727 16.321,-2.727 5.778,0 10.856,1.254 15.161,3.741 7.993,4.608 13.584,13.615 16.624,26.76 3.291,14.242 3.365,33.05 0.188,54.397 -1.066,7.178 -2.476,14.576 -4.211,22.141 -1.681,7.429 -3.698,15.015 -5.996,22.748 z"
   style="fill:#f2f2f2" />

	<circle
   id="circle79"
   r="46.695999"
   cy="289.98001"
   cx="256"
   style="fill:#f2f2f2" />

</g>
    <g
       transform="matrix(0.05143421,0,0,0.05120538,0.06954202,0.06433827)"
       id="g83">
</g>
    <g
       transform="matrix(0.05143421,0,0,0.05120538,0.06954202,0.06433827)"
       id="g85">
</g>
    <g
       transform="matrix(0.05143421,0,0,0.05120538,0.06954202,0.06433827)"
       id="g87">
</g>
    <g
       transform="matrix(0.05143421,0,0,0.05120538,0.06954202,0.06433827)"
       id="g89">
</g>
    <g
       transform="matrix(0.05143421,0,0,0.05120538,0.06954202,0.06433827)"
       id="g91">
</g>
    <g
       transform="matrix(0.05143421,0,0,0.05120538,0.06954202,0.06433827)"
       id="g93">
</g>
    <g
       transform="matrix(0.05143421,0,0,0.05120538,0.06954202,0.06433827)"
       id="g95">
</g>
    <g
       transform="matrix(0.05143421,0,0,0.05120538,0.06954202,0.06433827)"
       id="g97">
</g>
    <g
       transform="matrix(0.05143421,0,0,0.05120538,0.06954202,0.06433827)"
       id="g99">
</g>
    <g
       transform="matrix(0.05143421,0,0,0.05120538,0.06954202,0.06433827)"
       id="g101">
</g>
    <g
       transform="matrix(0.05143421,0,0,0.05120538,0.06954202,0.06433827)"
       id="g103">
</g>
    <g
       transform="matrix(0.05143421,0,0,0.05120538,0.06954202,0.06433827)"
       id="g105">
</g>
    <g
       transform="matrix(0.05143421,0,0,0.05120538,0.06954202,0.06433827)"
       id="g107">
</g>
    <g
       transform="matrix(0.05143421,0,0,0.05120538,0.06954202,0.06433827)"
       id="g109">
</g>
    <g
       transform="matrix(0.05143421,0,0,0.05120538,0.06954202,0.06433827)"
       id="g111">
</g>
  </g>
</svg>
